HIERARCHY
ROOT hip
{
  OFFSET 0 90.174 2.4664
  CHANNELS 6 Xposition Yposition Zposition Zrotation Xrotation Yrotation
  JOINT abdomen
  {
    OFFSET 0 -1.186 -1.5018
    CHANNELS 6 Xposition Yposition Zposition Zrotation Xrotation Yrotation
    JOINT abdomen2
    {
      OFFSET 0 9.964 0.2134
      CHANNELS 6 Xposition Yposition Zposition Zrotation Xrotation Yrotation
      JOINT chest
      {
        OFFSET 0 13.134 -3.2573
        CHANNELS 6 Xposition Yposition Zposition Zrotation Xrotation Yrotation
        JOINT neck
        {
          OFFSET 0 20.686 -1.6905
          CHANNELS 6 Xposition Yposition Zposition Zrotation Xrotation Yrotation
          JOINT head
          {
            OFFSET 0 7.238 -0.1237
            CHANNELS 6 Xposition Yposition Zposition Zrotation Xrotation Yrotation
            End Site
            {
              OFFSET 0 0 0
            }
          }
        }
        JOINT lCollar
        {
          OFFSET 1.7069 20.075 5.0056
          CHANNELS 6 Xposition Yposition Zposition Zrotation Xrotation Yrotation
          JOINT lShldr
          {
            OFFSET 13.6458 -0.047 -4.849
            CHANNELS 6 Xposition Yposition Zposition Zrotation Xrotation Yrotation
            JOINT lForeArm
            {
              OFFSET 28.3255 -0.9759 2.2888
              CHANNELS 6 Xposition Yposition Zposition Zrotation Xrotation Yrotation
              JOINT lHand
              {
                OFFSET 22.1583 -0.53 10.8316
                CHANNELS 6 Xposition Yposition Zposition Zrotation Xrotation Yrotation
                JOINT lThumb1
                {
                  OFFSET 0.786 0.112 2.5817
                  CHANNELS 6 Xposition Yposition Zposition Zrotation Xrotation Yrotation
                  JOINT lThumb2
                  {
                    OFFSET 0.3601 -0.878 4.2331
                    CHANNELS 6 Xposition Yposition Zposition Zrotation Xrotation Yrotation
                    JOINT lThumb2_End
                    {
                      OFFSET 1.8127 -1.216 2.2227
                      CHANNELS 6 Xposition Yposition Zposition Zrotation Xrotation Yrotation
                      End Site
                      {
                        OFFSET 0.0181 -0.0122 0.0222
                      }
                    }
                  }
                }
                JOINT lCarpal1
                {
                  OFFSET 0.9571 1.114 1.7695
                  CHANNELS 6 Xposition Yposition Zposition Zrotation Xrotation Yrotation
                  JOINT lIndex1
                  {
                    OFFSET 4.1246 0.487 4.1451
                    CHANNELS 6 Xposition Yposition Zposition Zrotation Xrotation Yrotation
                    JOINT lIndex2
                    {
                      OFFSET 3.4052 -1.454 2.7682
                      CHANNELS 6 Xposition Yposition Zposition Zrotation Xrotation Yrotation
                      JOINT lIndex2_End
                      {
                        OFFSET 1.4531 -1.795 1.2713
                        CHANNELS 6 Xposition Yposition Zposition Zrotation Xrotation Yrotation
                        End Site
                        {
                          OFFSET 0.0145 -0.0179 0.0127
                        }
                      }
                    }
                  }
                  JOINT lMid1
                  {
                    OFFSET 5.6954 0.21 2.1184
                    CHANNELS 6 Xposition Yposition Zposition Zrotation Xrotation Yrotation
                    JOINT lMid2
                    {
                      OFFSET 3.9766 -1.54 2.3863
                      CHANNELS 6 Xposition Yposition Zposition Zrotation Xrotation Yrotation
                      JOINT lMid2_End
                      {
                        OFFSET 1.4042 -1.926 1.125
                        CHANNELS 6 Xposition Yposition Zposition Zrotation Xrotation Yrotation
                        End Site
                        {
                          OFFSET 0.014 -0.0193 0.0113
                        }
                      }
                    }
                  }
                }
                JOINT lCarpal2
                {
                  OFFSET 2.0956 0.66 -0.3894
                  CHANNELS 6 Xposition Yposition Zposition Zrotation Xrotation Yrotation
                  JOINT lRing1
                  {
                    OFFSET 5.0395 -0.09 2.4971
                    CHANNELS 6 Xposition Yposition Zposition Zrotation Xrotation Yrotation
                    JOINT lRing2
                    {
                      OFFSET 3.7921 -1.552 1.4806
                      CHANNELS 6 Xposition Yposition Zposition Zrotation Xrotation Yrotation
                      JOINT lRing2_End
                      {
                        OFFSET 1.4655 -1.808 0.9609
                        CHANNELS 6 Xposition Yposition Zposition Zrotation Xrotation Yrotation
                        End Site
                        {
                          OFFSET 0.0147 -0.0181 0.0096
                        }
                      }
                    }
                  }
                  JOINT lPinky1
                  {
                    OFFSET 4.9141 -1.269 0.3591
                    CHANNELS 6 Xposition Yposition Zposition Zrotation Xrotation Yrotation
                    JOINT lPinky2
                    {
                      OFFSET 3.1477 -1.685 0.8462
                      CHANNELS 6 Xposition Yposition Zposition Zrotation Xrotation Yrotation
                      JOINT lPinky2_End
                      {
                        OFFSET 0.8055 -1.585 0.7955
                        CHANNELS 6 Xposition Yposition Zposition Zrotation Xrotation Yrotation
                        End Site
                        {
                          OFFSET 0.0081 -0.0158 0.008
                        }
                      }
                    }
                  }
                }
              }
            }
          }
        }
        JOINT rCollar
        {
          OFFSET -1.7069 20.075 5.0056
          CHANNELS 6 Xposition Yposition Zposition Zrotation Xrotation Yrotation
          JOINT rShldr
          {
            OFFSET -13.6458 -0.047 -4.849
            CHANNELS 6 Xposition Yposition Zposition Zrotation Xrotation Yrotation
            JOINT rForeArm
            {
              OFFSET -28.3255 -0.9759 2.2888
              CHANNELS 6 Xposition Yposition Zposition Zrotation Xrotation Yrotation
              JOINT rHand
              {
                OFFSET -22.1583 -0.53 10.8316
                CHANNELS 6 Xposition Yposition Zposition Zrotation Xrotation Yrotation
                JOINT rThumb1
                {
                  OFFSET -0.786 0.112 2.5817
                  CHANNELS 6 Xposition Yposition Zposition Zrotation Xrotation Yrotation
                  JOINT rThumb2
                  {
                    OFFSET -0.3601 -0.878 4.2331
                    CHANNELS 6 Xposition Yposition Zposition Zrotation Xrotation Yrotation
                    JOINT rThumb2_End
                    {
                      OFFSET -1.8127 -1.216 2.2227
                      CHANNELS 6 Xposition Yposition Zposition Zrotation Xrotation Yrotation
                      End Site
                      {
                        OFFSET -0.0181 -0.0122 0.0222
                      }
                    }
                  }
                }
                JOINT rCarpal1
                {
                  OFFSET -0.9571 1.114 1.7695
                  CHANNELS 6 Xposition Yposition Zposition Zrotation Xrotation Yrotation
                  JOINT rIndex1
                  {
                    OFFSET -4.1246 0.487 4.1451
                    CHANNELS 6 Xposition Yposition Zposition Zrotation Xrotation Yrotation
                    JOINT rIndex2
                    {
                      OFFSET -3.4052 -1.454 2.7682
                      CHANNELS 6 Xposition Yposition Zposition Zrotation Xrotation Yrotation
                      JOINT rIndex2_End
                      {
                        OFFSET -1.4531 -1.795 1.2713
                        CHANNELS 6 Xposition Yposition Zposition Zrotation Xrotation Yrotation
                        End Site
                        {
                          OFFSET -0.0145 -0.018 0.0127
                        }
                      }
                    }
                  }
                  JOINT rMid1
                  {
                    OFFSET -5.6954 0.21 2.1184
                    CHANNELS 6 Xposition Yposition Zposition Zrotation Xrotation Yrotation
                    JOINT rMid2
                    {
                      OFFSET -3.9766 -1.54 2.3863
                      CHANNELS 6 Xposition Yposition Zposition Zrotation Xrotation Yrotation
                      JOINT rMid2_End
                      {
                        OFFSET -1.4042 -1.926 1.125
                        CHANNELS 6 Xposition Yposition Zposition Zrotation Xrotation Yrotation
                        End Site
                        {
                          OFFSET -0.014 -0.0193 0.0113
                        }
                      }
                    }
                  }
                }
                JOINT rCarpal2
                {
                  OFFSET -2.0956 0.66 -0.3894
                  CHANNELS 6 Xposition Yposition Zposition Zrotation Xrotation Yrotation
                  JOINT rRing1
                  {
                    OFFSET -5.0395 -0.09 2.4971
                    CHANNELS 6 Xposition Yposition Zposition Zrotation Xrotation Yrotation
                    JOINT rRing2
                    {
                      OFFSET -3.7921 -1.552 1.4806
                      CHANNELS 6 Xposition Yposition Zposition Zrotation Xrotation Yrotation
                      JOINT rRing2_End
                      {
                        OFFSET -1.4655 -1.808 0.9609
                        CHANNELS 6 Xposition Yposition Zposition Zrotation Xrotation Yrotation
                        End Site
                        {
                          OFFSET -0.0147 -0.0181 0.0096
                        }
                      }
                    }
                  }
                  JOINT rPinky1
                  {
                    OFFSET -4.9141 -1.269 0.3592
                    CHANNELS 6 Xposition Yposition Zposition Zrotation Xrotation Yrotation
                    JOINT rPinky2
                    {
                      OFFSET -3.1477 -1.685 0.8462
                      CHANNELS 6 Xposition Yposition Zposition Zrotation Xrotation Yrotation
                      JOINT rPinky2_End
                      {
                        OFFSET -0.8055 -1.585 0.7955
                        CHANNELS 6 Xposition Yposition Zposition Zrotation Xrotation Yrotation
                        End Site
                        {
                          OFFSET -0.0081 -0.0158 0.008
                        }
                      }
                    }
                  }
                }
              }
            }
          }
        }
      }
    }
  }
  JOINT lThigh
  {
    OFFSET 8.367 -8.2066 0.5982
    CHANNELS 6 Xposition Yposition Zposition Zrotation Xrotation Yrotation
    JOINT lShin
    {
      OFFSET 2.1923 -43.463 -0.4932
      CHANNELS 6 Xposition Yposition Zposition Zrotation Xrotation Yrotation
      JOINT lFoot
      {
        OFFSET 0.7333 -45.8593 -2.6451
        CHANNELS 6 Xposition Yposition Zposition Zrotation Xrotation Yrotation
        End Site
        {
          OFFSET 2.6618 -4.2699 12.3931
        }
      }
    }
  }
  JOINT rThigh
  {
    OFFSET -8.367 -8.2066 0.5982
    CHANNELS 6 Xposition Yposition Zposition Zrotation Xrotation Yrotation
    JOINT rShin
    {
      OFFSET -2.1923 -43.463 -0.4931
      CHANNELS 6 Xposition Yposition Zposition Zrotation Xrotation Yrotation
      JOINT rFoot
      {
        OFFSET -0.7333 -45.8593 -2.6451
        CHANNELS 6 Xposition Yposition Zposition Zrotation Xrotation Yrotation
        End Site
        {
          OFFSET -2.6618 -4.2699 12.3931
        }
      }
    }
  }
}
MOTION
Frames:	4
Frame Time:	0.0333333
0 90.174 2.4664 0 0 -0 0 -1.186 -1.5018 0 0 -0 0 9.964 0.2134 0 0 -0 0 13.134 -3.2573 0 0 -0 0 20.686 -1.6905 0 0 -0 0 7.238 -0.1237 0 0 -0 1.7069 20.075 5.0056 0 0 -0 13.6458 -0.047 -4.849 1.66051 0.0835086 5.75766 28.3255 -0.9759 2.2888 -0.0175111 0.895433 15.7816 22.1583 -0.53 10.8316 7.95139e-016 -1.98785e-016 -0 0.786 0.112 2.5817 5.46658e-016 -3.97569e-016 -0 0.3601 -0.878 4.2331 5.96354e-016 0 -0 1.8127 -1.216 2.2227 3.97569e-016 1.98785e-016 9.54166e-015 0.9571 1.114 1.7695 1.49089e-016 -3.97569e-016 -0 4.1246 0.487 4.1451 6.4605e-016 0 3.18055e-015 3.4052 -1.454 2.7682 5.96354e-016 0 3.18055e-015 1.4531 -1.795 1.2713 8.94531e-016 -1.98785e-016 6.36111e-015 5.6954 0.21 2.1184 6.4605e-016 0 3.18055e-015 3.9766 -1.54 2.3863 5.96354e-016 0 3.18055e-015 1.4042 -1.926 1.125 8.94531e-016 -1.98785e-016 6.36111e-015 2.0956 0.66 -0.3894 1.49089e-016 -3.97569e-016 -0 5.0395 -0.09 2.4971 6.4605e-016 0 3.18055e-015 3.7921 -1.552 1.4806 5.96354e-016 0 3.18055e-015 1.4655 -1.808 0.9609 8.94531e-016 -1.98785e-016 6.36111e-015 4.9141 -1.269 0.3591 6.4605e-016 0 3.18055e-015 3.1477 -1.685 0.8462 5.96354e-016 0 3.18055e-015 0.8055 -1.585 0.7955 8.94531e-016 -1.98785e-016 6.36111e-015 -1.7069 20.075 5.0056 0 0 -0 -13.6458 -0.047 -4.849 -1.4496 0.0636048 -5.0245 -28.3255 -0.9759 2.2888 -1.74811 1.20616 -16.8394 -22.1583 -0.53 10.8316 -1.19271e-015 1.98785e-016 -3.18055e-015 -0.786 0.112 2.5817 -3.97569e-016 1.98785e-016 -3.18055e-015 -0.3601 -0.878 4.2331 -2.98177e-016 1.98785e-016 -3.18055e-015 -1.8127 -1.216 2.2227 -2.98177e-016 3.97569e-016 -0 -0.9571 1.114 1.7695 4.96962e-016 0 -6.36111e-015 -4.1246 0.487 4.1451 -9.93923e-017 3.97569e-016 -0 -3.4052 -1.454 2.7682 -8.94531e-016 5.96354e-016 -0 -1.4531 -1.795 1.2713 -3.97569e-016 3.97569e-016 -0 -5.6954 0.21 2.1184 -9.93923e-017 3.97569e-016 -0 -3.9766 -1.54 2.3863 -8.94531e-016 5.96354e-016 -0 -1.4042 -1.926 1.125 -3.97569e-016 3.97569e-016 -0 -2.0956 0.66 -0.3894 4.96962e-016 0 -6.36111e-015 -5.0395 -0.09 2.4971 -9.93923e-017 3.97569e-016 -0 -3.7921 -1.552 1.4806 -8.94531e-016 5.96354e-016 -0 -1.4655 -1.808 0.9609 -3.97569e-016 3.97569e-016 -0 -4.9141 -1.269 0.3592 -9.93923e-017 3.97569e-016 -0 -3.1477 -1.685 0.8462 -8.94531e-016 5.96354e-016 -0 -0.8055 -1.585 0.7955 -3.97569e-016 3.97569e-016 -0 8.367 -8.2066 0.5982 -4.66115 -1.03232 0.120763 2.1923 -43.463 -0.4932 0.00990601 1.55097 0.177175 0.7333 -45.8593 -2.6451 4.65196 -0.54114 -0.255042 -8.367 -8.2066 0.5982 4.66115 -1.03222 -0.120763 -2.1923 -43.463 -0.4931 -0.00990459 1.5509 -0.177176 -0.7333 -45.8593 -2.6451 -4.65196 -0.541171 0.255041 
0.645918 9.10042 -6.10477 0.645985 -48.0242 -1.50211 0 -1.186 -1.5018 -1.98654 11.2844 -0.600727 1.11022e-016 9.964 0.2134 -3.96899 22.5826 -0.817452 -3.33067e-016 13.134 -3.2573 -3.96899 22.5826 -0.817453 0 20.686 -1.6905 2.00902 5.99592 -0.212038 -4.44089e-016 7.238 -0.1237 10.9491 -23.9407 13.4889 1.7069 20.075 5.0056 -13.2752 -6.25033 12.4898 13.6458 -0.047 -4.849 -57.3609 -4.15534 4.38597 28.3255 -0.9759 2.2888 0.592837 -23.6961 -2.00128 22.1583 -0.53 10.8316 41.3648 47.7748 6.75473 0.786 0.112 2.5817 -3.18055e-015 9.54166e-015 -3.18055e-015 0.3601 -0.878 4.2331 -4.77083e-015 0 -0 1.8127 -1.216 2.2227 -4.77083e-015 -3.18055e-015 -6.36111e-015 0.9571 1.114 1.7695 -3.18055e-015 9.54166e-015 -3.18055e-015 4.1246 0.487 4.1451 -1.59028e-015 0 9.54166e-015 3.4052 -1.454 2.7682 7.95139e-015 0 -0 1.4531 -1.795 1.2713 -1.59028e-015 3.18055e-015 -6.36111e-015 5.6954 0.21 2.1184 -1.59028e-015 0 9.54166e-015 3.9766 -1.54 2.3863 7.95139e-015 0 -0 1.4042 -1.926 1.125 -1.59028e-015 3.18055e-015 -6.36111e-015 2.0956 0.66 -0.3894 -3.18055e-015 9.54166e-015 -3.18055e-015 5.0395 -0.09 2.4971 -1.59028e-015 0 9.54166e-015 3.7921 -1.552 1.4806 7.95139e-015 0 -0 1.4655 -1.808 0.9609 -1.59028e-015 3.18055e-015 -6.36111e-015 4.9141 -1.269 0.3591 -1.59028e-015 0 9.54166e-015 3.1477 -1.685 0.8462 7.95139e-015 0 -0 0.8055 -1.585 0.7955 -1.59028e-015 3.18055e-015 -6.36111e-015 -1.7069 20.075 5.0056 -2.96058 -7.88348 29.0072 -13.6458 -0.047 -4.849 6.46806 -19.4675 39.6305 -28.3255 -0.9759 2.2888 36.2012 -53.1275 9.43211 -22.1583 -0.53 10.8316 30.2261 -9.0879 14.6404 -0.786 0.112 2.5817 -4.3016e-006 -5.69654e-006 -1.45352e-006 -0.3601 -0.878 4.2331 -4.18983e-006 1.29809e-006 -2.90435e-006 -1.8127 -1.216 2.2227 -2.63676e-006 -1.09705e-005 -1.99061e-006 -0.9571 1.114 1.7695 0 0 -0 -4.1246 0.487 4.1451 -4.3016e-006 -5.69654e-006 -1.45352e-006 -3.4052 -1.454 2.7682 -4.18983e-006 1.29809e-006 -2.90435e-006 -1.4531 -1.795 1.2713 -2.63676e-006 -1.09705e-005 -1.99061e-006 -5.6954 0.21 2.1184 -4.3016e-006 -5.69654e-006 -1.45352e-006 -3.9766 -1.54 2.3863 -4.18983e-006 1.29809e-006 -2.90435e-006 -1.4042 -1.926 1.125 -2.63676e-006 -1.09705e-005 -1.99061e-006 -2.0956 0.66 -0.3894 0 0 -0 -5.0395 -0.09 2.4971 -4.3016e-006 -5.69654e-006 -1.45352e-006 -3.7921 -1.552 1.4806 -4.18983e-006 1.29809e-006 -2.90435e-006 -1.4655 -1.808 0.9609 -2.63676e-006 -1.09705e-005 -1.99061e-006 -4.9141 -1.269 0.3592 -4.3016e-006 -5.69654e-006 -1.45352e-006 -3.1477 -1.685 0.8462 -4.18983e-006 1.29809e-006 -2.90435e-006 -0.8055 -1.585 0.7955 -2.63676e-006 -1.09705e-005 -1.99061e-006 8.367 -8.2066 0.5982 49.3272 -21.2724 114.985 2.1923 -43.463 -0.4932 -92.7778 85.5556 95.2906 0.7333 -45.8593 -2.6451 -59.8404 29.4501 64.5035 -8.367 -8.2066 0.5982 -104.874 -73.7024 -116.282 -2.1923 -43.463 -0.4931 -132.015 79.7485 129.669 -0.7333 -45.8593 -2.6451 22.744 39.9376 -16.9371 
0.645917 9.10042 -6.10477 0.645985 -48.0242 -1.50211 0 -1.186 -1.5018 -1.98654 11.2844 -0.600727 -1.66533e-016 9.964 0.2134 -3.96899 22.5826 -0.817452 0 13.134 -3.2573 -3.96899 22.5826 -0.817453 0 20.686 -1.6905 2.07331 6.04903 -0.286003 -4.44089e-016 7.238 -0.1237 10.9491 -23.9407 13.4889 1.7069 20.075 5.0056 -13.2752 -6.25033 12.4898 13.6458 -0.047 -4.849 -57.3609 -4.15533 4.38597 28.3255 -0.9759 2.2888 0.592827 -23.6961 -2.00129 22.1583 -0.53 10.8316 41.3648 47.7748 6.75472 0.786 0.112 2.5817 -0 -3.18055e-015 -0 0.3601 -0.878 4.2331 -9.54166e-015 3.18055e-015 9.54166e-015 1.8127 -1.216 2.2227 -4.77083e-015 0 3.18055e-015 0.9571 1.114 1.7695 0 3.18055e-015 -0 4.1246 0.487 4.1451 -1.59028e-015 -6.36111e-015 3.18055e-015 3.4052 -1.454 2.7682 -7.95139e-015 -6.36111e-015 6.36111e-015 1.4531 -1.795 1.2713 -4.77083e-015 0 6.36111e-015 5.6954 0.21 2.1184 -1.59028e-015 -6.36111e-015 3.18055e-015 3.9766 -1.54 2.3863 -7.95139e-015 -6.36111e-015 6.36111e-015 1.4042 -1.926 1.125 -4.77083e-015 0 6.36111e-015 2.0956 0.66 -0.3894 0 3.18055e-015 -0 5.0395 -0.09 2.4971 -1.59028e-015 -6.36111e-015 3.18055e-015 3.7921 -1.552 1.4806 -7.95139e-015 -6.36111e-015 6.36111e-015 1.4655 -1.808 0.9609 -4.77083e-015 0 6.36111e-015 4.9141 -1.269 0.3591 -1.59028e-015 -6.36111e-015 3.18055e-015 3.1477 -1.685 0.8462 -7.95139e-015 -6.36111e-015 6.36111e-015 0.8055 -1.585 0.7955 -4.77083e-015 0 6.36111e-015 -1.7069 20.075 5.0056 -2.96058 -7.88348 29.0072 -13.6458 -0.047 -4.849 6.46807 -19.4675 39.6305 -28.3255 -0.9759 2.2888 35.943 -52.7253 9.43345 -22.1583 -0.53 10.8316 29.915 -9.43566 14.854 -0.786 0.112 2.5817 -5.47736e-006 2.01754e-006 -2.2548e-006 -0.3601 -0.878 4.2331 5.47736e-006 -2.01754e-006 2.2548e-006 -1.8127 -1.216 2.2227 -5.47736e-006 2.01754e-006 -2.2548e-006 -0.9571 1.114 1.7695 -3.18055e-015 0 1.59028e-015 -4.1246 0.487 4.1451 -5.47736e-006 2.01754e-006 -2.2548e-006 -3.4052 -1.454 2.7682 5.47736e-006 -2.01754e-006 2.2548e-006 -1.4531 -1.795 1.2713 -5.47736e-006 2.01754e-006 -2.2548e-006 -5.6954 0.21 2.1184 -5.47736e-006 2.01754e-006 -2.2548e-006 -3.9766 -1.54 2.3863 5.47736e-006 -2.01754e-006 2.2548e-006 -1.4042 -1.926 1.125 -5.47736e-006 2.01754e-006 -2.2548e-006 -2.0956 0.66 -0.3894 -3.18055e-015 0 1.59028e-015 -5.0395 -0.09 2.4971 -5.47736e-006 2.01754e-006 -2.2548e-006 -3.7921 -1.552 1.4806 5.47736e-006 -2.01754e-006 2.2548e-006 -1.4655 -1.808 0.9609 -5.47736e-006 2.01754e-006 -2.2548e-006 -4.9141 -1.269 0.3592 -5.47736e-006 2.01754e-006 -2.2548e-006 -3.1477 -1.685 0.8462 5.47736e-006 -2.01754e-006 2.2548e-006 -0.8055 -1.585 0.7955 -5.47736e-006 2.01754e-006 -2.2548e-006 8.367 -8.2066 0.5982 49.3272 -21.2723 114.985 2.1923 -43.463 -0.4932 -92.7778 85.5556 95.2906 0.7333 -45.8593 -2.6451 -59.8404 29.4501 64.5035 -8.367 -8.2066 0.5982 -104.874 -73.7024 -116.282 -2.1923 -43.463 -0.4931 -132.015 79.7485 129.669 -0.7333 -45.8593 -2.6451 22.744 39.9376 -16.9372 
0.645918 9.10042 -6.10477 0.645985 -48.0242 -1.50211 1.11022e-016 -1.186 -1.5018 -1.98654 11.2844 -0.600727 5.55112e-017 9.964 0.2134 -3.96899 22.5826 -0.817452 -3.33067e-016 13.134 -3.2573 -3.96899 22.5826 -0.817453 -4.44089e-016 20.686 -1.6905 2.13766 6.10208 -0.360061 0 7.238 -0.1237 10.9491 -23.9407 13.4889 1.7069 20.075 5.0056 -13.2752 -6.25033 12.4898 13.6458 -0.047 -4.849 -57.3609 -4.15533 4.38597 28.3255 -0.9759 2.2888 0.592846 -23.6961 -2.00127 22.1583 -0.53 10.8316 41.3648 47.7748 6.75472 0.786 0.112 2.5817 3.18055e-015 6.36111e-015 6.36111e-015 0.3601 -0.878 4.2331 1.24602e-006 -1.5805e-006 -2.31885e-007 1.8127 -1.216 2.2227 1.0343e-006 -2.03552e-006 2.54327e-007 0.9571 1.114 1.7695 3.18055e-015 6.36111e-015 6.36111e-015 4.1246 0.487 4.1451 8.82781e-031 -1.59028e-014 3.18055e-015 3.4052 -1.454 2.7682 1.24602e-006 -1.5805e-006 -2.31885e-007 1.4531 -1.795 1.2713 1.0343e-006 -2.03552e-006 2.54327e-007 5.6954 0.21 2.1184 8.82781e-031 -1.59028e-014 3.18055e-015 3.9766 -1.54 2.3863 1.24602e-006 -1.5805e-006 -2.31885e-007 1.4042 -1.926 1.125 1.0343e-006 -2.03552e-006 2.54327e-007 2.0956 0.66 -0.3894 3.18055e-015 6.36111e-015 6.36111e-015 5.0395 -0.09 2.4971 8.82781e-031 -1.59028e-014 3.18055e-015 3.7921 -1.552 1.4806 1.24602e-006 -1.5805e-006 -2.31885e-007 1.4655 -1.808 0.9609 1.0343e-006 -2.03552e-006 2.54327e-007 4.9141 -1.269 0.3591 8.82781e-031 -1.59028e-014 3.18055e-015 3.1477 -1.685 0.8462 1.24602e-006 -1.5805e-006 -2.31885e-007 0.8055 -1.585 0.7955 1.0343e-006 -2.03552e-006 2.54327e-007 -1.7069 20.075 5.0056 -2.96058 -7.88348 29.0072 -13.6458 -0.047 -4.849 6.46807 -19.4675 39.6305 -28.3255 -0.9759 2.2888 35.6866 -52.3225 9.43779 -22.1583 -0.53 10.8316 29.6043 -9.78534 15.0664 -0.786 0.112 2.5817 1.59028e-015 5.96354e-015 4.77083e-015 -0.3601 -0.878 4.2331 -1.59028e-015 5.1684e-015 1.59028e-015 -1.8127 -1.216 2.2227 3.18055e-015 6.75868e-015 3.18055e-015 -0.9571 1.114 1.7695 2.20695e-032 -3.97569e-016 3.18055e-015 -4.1246 0.487 4.1451 7.95139e-015 -2.14687e-014 1.11319e-014 -3.4052 -1.454 2.7682 -3.75182e-031 6.75868e-015 3.18055e-015 -1.4531 -1.795 1.2713 1.59028e-015 6.75868e-015 3.18055e-015 -5.6954 0.21 2.1184 7.95139e-015 -2.14687e-014 1.11319e-014 -3.9766 -1.54 2.3863 -3.75182e-031 6.75868e-015 3.18055e-015 -1.4042 -1.926 1.125 1.59028e-015 6.75868e-015 3.18055e-015 -2.0956 0.66 -0.3894 2.20695e-032 -3.97569e-016 3.18055e-015 -5.0395 -0.09 2.4971 7.95139e-015 -2.14687e-014 1.11319e-014 -3.7921 -1.552 1.4806 -3.75182e-031 6.75868e-015 3.18055e-015 -1.4655 -1.808 0.9609 1.59028e-015 6.75868e-015 3.18055e-015 -4.9141 -1.269 0.3592 7.95139e-015 -2.14687e-014 1.11319e-014 -3.1477 -1.685 0.8462 -3.75182e-031 6.75868e-015 3.18055e-015 -0.8055 -1.585 0.7955 1.59028e-015 6.75868e-015 3.18055e-015 8.367 -8.2066 0.5982 49.3272 -21.2724 114.985 2.1923 -43.463 -0.4932 -92.7778 85.5556 95.2906 0.7333 -45.8593 -2.6451 -59.8404 29.45 64.5035 -8.367 -8.2066 0.5982 -104.875 -73.7022 -116.283 -2.1923 -43.463 -0.4931 -132.016 79.7483 129.67 -0.7333 -45.8593 -2.6451 22.744 39.9376 -16.9372 
